<svg width="647.0029296875px" height="115.04000549316406px" xmlns="http://www.w3.org/2000/svg" viewBox="-73.50146484375 17.47999725341797 647.0029296875 115.04000549316406" style="background: rgba(0, 0, 0, 0);" preserveAspectRatio="xMidYMid"><defs><filter id="editing-neon" x="-100%" y="-100%" width="300%" height="300%"><feFlood flood-color="#00ff2f" result="flood"></feFlood><feComposite operator="in" in="flood" in2="SourceAlpha" result="color"></feComposite><feFlood flood-color="#00ff2f" result="flood2"></feFlood><feComposite operator="in" in="flood2" in2="SourceAlpha" result="color2"></feComposite><feMorphology operator="dilate" radius="2" in="color" result="dilate"></feMorphology><feGaussianBlur stdDeviation="6" in="color" result="blur1"></feGaussianBlur><feGaussianBlur stdDeviation="2.5" in="color" result="blur2"></feGaussianBlur><feGaussianBlur stdDeviation="1" in="SourceAlpha" result="blur3"></feGaussianBlur><feGaussianBlur stdDeviation="6" in="dilate" result="blur4"></feGaussianBlur><feConvolveMatrix in="color2" result="conv" order="3,3" divisor="1" kernelMatrix="1 1 1  1 1 1  1 1 1"></feConvolveMatrix><feMerge><feMergeNode in="blur1"></feMergeNode><feMergeNode in="blur2"></feMergeNode><feMergeNode in="blur4"></feMergeNode><feMergeNode in="blur3"></feMergeNode><feMergeNode in="blur3"></feMergeNode><feMergeNode in="blur3"></feMergeNode><feMergeNode in="blur3"></feMergeNode><feMergeNode in="conv"></feMergeNode><feMergeNode in="SourceGraphic"></feMergeNode></feMerge></filter></defs><g filter="url(#editing-neon)"><g transform="translate(18.71941637992859, 94.15999984741211)"><path d="M36.14-26.62L24.44-26.62L24.44 0L12.95 0L12.95-26.62L1.20-26.62L1.20-35.78L36.14-35.78L36.14-26.62ZM59.38-36.40L59.38-36.40Q64.53-36.40 68.64-34.84L68.64-34.84L68.64-34.84Q72.75-33.28 75.17-30.24L75.17-30.24L75.17-30.24Q77.58-27.20 77.58-22.83L77.58-22.83L66.61-22.83L66.61-22.83Q66.61-25.06 64.64-26.44L64.64-26.44L64.64-26.44Q62.66-27.82 59.85-27.82L59.85-27.82L59.85-27.82Q55.80-27.82 53.72-25.66L53.72-25.66L53.72-25.66Q51.64-23.50 51.64-19.55L51.64-19.55L51.64-16.22L51.64-16.22Q51.64-12.27 53.72-10.11L53.72-10.11L53.72-10.11Q55.80-7.96 59.85-7.96L59.85-7.96L59.85-7.96Q62.66-7.96 64.64-9.28L64.64-9.28L64.64-9.28Q66.61-10.61 66.61-12.69L66.61-12.69L58.50-12.69L58.50-19.97L77.58-19.97L77.58 0L71.66 0L70.51-3.54L70.51-3.54Q65.62 0.62 57.72 0.62L57.72 0.62L57.72 0.62Q48.83 0.62 44.36-4.03L44.36-4.03L44.36-4.03Q39.88-8.68 39.88-17.89L39.88-17.89L39.88-17.89Q39.88-26.99 44.95-31.69L44.95-31.69L44.95-31.69Q50.02-36.40 59.38-36.40L59.38-36.40ZM84.71 0L84.71-35.78L96.20-35.78L96.20-9.15L114.56-9.15L114.56 0L84.71 0ZM134.42-36.40L134.42-36.40Q141.28-36.40 145.70-33.62L145.70-33.62L145.70-33.62Q150.12-30.84 150.23-25.38L150.23-25.38L150.23-24.75L139.46-24.75L139.46-24.96L139.46-24.96Q139.46-26.52 138.32-27.56L138.32-27.56L138.32-27.56Q137.18-28.60 134.84-28.60L134.84-28.60L134.84-28.60Q132.55-28.60 131.33-27.92L131.33-27.92L131.33-27.92Q130.10-27.25 130.10-26.26L130.10-26.26L130.10-26.26Q130.10-24.86 131.77-24.18L131.77-24.18L131.77-24.18Q133.43-23.50 137.12-22.78L137.12-22.78L137.12-22.78Q141.44-21.89 144.22-20.93L144.22-20.93L144.22-20.93Q147.00-19.97 149.08-17.78L149.08-17.78L149.08-17.78Q151.16-15.60 151.22-11.86L151.22-11.86L151.22-11.86Q151.22-5.51 146.93-2.44L146.93-2.44L146.93-2.44Q142.64 0.62 135.46 0.62L135.46 0.62L135.46 0.62Q127.09 0.62 122.43-2.18L122.43-2.18L122.43-2.18Q117.78-4.99 117.78-12.12L117.78-12.12L128.65-12.12L128.65-12.12Q128.65-9.41 130.05-8.50L130.05-8.50L130.05-8.50Q131.46-7.59 134.42-7.59L134.42-7.59L134.42-7.59Q136.60-7.59 138.03-8.06L138.03-8.06L138.03-8.06Q139.46-8.53 139.46-9.98L139.46-9.98L139.46-9.98Q139.46-11.28 137.88-11.93L137.88-11.93L137.88-11.93Q136.29-12.58 132.70-13.31L132.70-13.31L132.70-13.31Q128.34-14.25 125.48-15.26L125.48-15.26L125.48-15.26Q122.62-16.28 120.48-18.62L120.48-18.62L120.48-18.62Q118.35-20.96 118.35-24.96L118.35-24.96L118.35-24.96Q118.35-30.84 122.90-33.62L122.90-33.62L122.90-33.62Q127.45-36.40 134.42-36.40L134.42-36.40ZM170.40-28.08L170.40-28.08Q177.63-28.08 181.77-24.41L181.77-24.41L181.77-24.41Q185.90-20.75 185.90-13.73L185.90-13.73L185.90-13.73Q185.90-6.71 181.77-3.04L181.77-3.04L181.77-3.04Q177.63 0.62 170.40 0.62L170.40 0.62L170.40 0.62Q163.18 0.62 159.07-3.02L159.07-3.02L159.07-3.02Q154.96-6.66 154.96-13.73L154.96-13.73L154.96-13.73Q154.96-20.80 159.07-24.44L159.07-24.44L159.07-24.44Q163.18-28.08 170.40-28.08L170.40-28.08ZM170.40-21.06L170.40-21.06Q165.31-21.06 165.31-15.18L165.31-15.18L165.31-12.22L165.31-12.22Q165.31-6.40 170.40-6.40L170.40-6.40L170.40-6.40Q175.55-6.40 175.55-12.22L175.55-12.22L175.55-15.18L175.55-15.18Q175.55-21.06 170.40-21.06L170.40-21.06ZM205.09-28.08L205.09-28.08Q211.85-28.08 216.03-25.19L216.03-25.19L216.03-25.19Q220.22-22.31 220.22-16.38L220.22-16.38L210.18-16.38L210.18-16.38Q210.18-21.06 205.09-21.06L205.09-21.06L205.09-21.06Q199.99-21.06 199.99-15.18L199.99-15.18L199.99-12.22L199.99-12.22Q199.99-6.40 205.30-6.40L205.30-6.40L205.30-6.40Q210.60-6.40 210.60-11.18L210.60-11.18L220.22-11.18L220.22-11.18Q220.22-5.20 216.03-2.29L216.03-2.29L216.03-2.29Q211.85 0.62 205.09 0.62L205.09 0.62L205.09 0.62Q197.86 0.62 193.75-3.02L193.75-3.02L193.75-3.02Q189.64-6.66 189.64-13.73L189.64-13.73L189.64-13.73Q189.64-20.80 193.75-24.44L193.75-24.44L193.75-24.44Q197.86-28.08 205.09-28.08L205.09-28.08ZM236.29-30.68L225.94-30.68L225.94-37.70L236.29-37.70L236.29-30.68ZM236.29 0L225.94 0L225.94-27.46L236.29-27.46L236.29 0ZM256.46-28.08L256.46-28.08Q262.76-28.08 266.71-25.97L266.71-25.97L266.71-25.97Q270.66-23.87 270.66-19.14L270.66-19.14L270.66-8.42L270.66-8.42Q270.66-7.54 271.08-6.97L271.08-6.97L271.08-6.97Q271.49-6.40 272.32-6.40L272.32-6.40L274.20-6.40L274.20-0.42L274.20-0.42Q274.04-0.31 273.39-0.08L273.39-0.08L273.39-0.08Q272.74 0.16 271.54 0.39L271.54 0.39L271.54 0.39Q270.35 0.62 268.79 0.62L268.79 0.62L268.79 0.62Q265.77 0.62 263.82-0.29L263.82-0.29L263.82-0.29Q261.87-1.20 261.14-2.81L261.14-2.81L261.14-2.81Q259.17-1.25 256.72-0.31L256.72-0.31L256.72-0.31Q254.28 0.62 251.00 0.62L251.00 0.62L251.00 0.62Q241.33 0.62 241.33-7.07L241.33-7.07L241.33-7.07Q241.33-11.08 243.49-13.18L243.49-13.18L243.49-13.18Q245.65-15.29 249.70-16.07L249.70-16.07L249.70-16.07Q253.76-16.85 260.31-16.85L260.31-16.85L260.31-18.20L260.31-18.20Q260.31-19.81 259.19-20.64L259.19-20.64L259.19-20.64Q258.08-21.48 256.31-21.48L256.31-21.48L256.31-21.48Q254.70-21.48 253.53-20.90L253.53-20.90L253.53-20.90Q252.36-20.33 252.36-19.08L252.36-19.08L252.36-18.88L242.16-18.88L242.16-18.88Q242.11-19.14 242.11-19.60L242.11-19.60L242.11-19.60Q242.11-23.50 245.83-25.79L245.83-25.79L245.83-25.79Q249.55-28.08 256.46-28.08L256.46-28.08ZM260.31-11.96L260.31-11.96Q255.89-11.96 253.79-11.00L253.79-11.00L253.79-11.00Q251.68-10.04 251.68-8.42L251.68-8.42L251.68-8.42Q251.68-5.82 255.22-5.82L255.22-5.82L255.22-5.82Q257.24-5.82 258.78-6.92L258.78-6.92L258.78-6.92Q260.31-8.01 260.31-9.62L260.31-9.62L260.31-11.96ZM288.29 0L277.94 0L277.94-37.70L288.29-37.70L288.29 0ZM337.74 0L326.35 0L326.35-12.90L326.35-12.90Q326.35-15.29 326.53-17.81L326.53-17.81L326.53-17.81Q326.72-20.33 326.92-22.05L326.92-22.05L326.92-22.05Q327.13-23.76 327.18-24.23L327.18-24.23L326.98-24.23L320.37 0L311.38 0L304.72-24.18L304.51-24.18L304.51-24.18Q304.56-23.71 304.80-22.02L304.80-22.02L304.80-22.02Q305.03-20.33 305.24-17.81L305.24-17.81L305.24-17.81Q305.45-15.29 305.45-12.90L305.45-12.90L305.45 0L294.89 0L294.89-35.78L311.12-35.78L316.52-15.13L316.73-15.13L322.09-35.78L337.74-35.78L337.74 0ZM358.18-28.08L358.18-28.08Q365.72-28.08 369.69-24.54L369.69-24.54L369.69-24.54Q373.67-21.01 373.67-13.73L373.67-13.73L373.67-11.96L353.08-11.96L353.08-11.96Q353.08-9.00 354.41-7.49L354.41-7.49L354.41-7.49Q355.73-5.98 358.59-5.98L358.59-5.98L358.59-5.98Q361.19-5.98 362.41-7.07L362.41-7.07L362.41-7.07Q363.64-8.16 363.64-9.98L363.64-9.98L373.67-9.98L373.67-9.98Q373.67-4.99 369.88-2.18L369.88-2.18L369.88-2.18Q366.08 0.62 358.80 0.62L358.80 0.62L358.80 0.62Q351.16 0.62 346.94-2.94L346.94-2.94L346.94-2.94Q342.73-6.50 342.73-13.73L342.73-13.73L342.73-13.73Q342.73-20.80 346.84-24.44L346.84-24.44L346.84-24.44Q350.95-28.08 358.18-28.08L358.18-28.08ZM358.59-21.48L358.59-21.48Q353.70-21.48 353.13-16.85L353.13-16.85L363.22-16.85L363.22-16.85Q363.22-18.98 362.00-20.23L362.00-20.23L362.00-20.23Q360.78-21.48 358.59-21.48L358.59-21.48ZM407.06 0L398.63 0L397.75-3.90L397.75-3.90Q394.73 0.62 389.01 0.62L389.01 0.62L389.01 0.62Q383.45 0.62 380.43-3.02L380.43-3.02L380.43-3.02Q377.42-6.66 377.42-13.78L377.42-13.78L377.42-13.78Q377.42-20.85 380.43-24.47L380.43-24.47L380.43-24.47Q383.45-28.08 389.01-28.08L389.01-28.08L389.01-28.08Q393.74-28.08 396.71-24.91L396.71-24.91L396.71-37.70L407.06-37.70L407.06 0ZM392.24-20.44L392.24-20.44Q387.76-20.44 387.76-15.08L387.76-15.08L387.76-12.32L387.76-12.32Q387.76-7.02 392.24-7.02L392.24-7.02L392.24-7.02Q394.52-7.02 395.67-8.63L395.67-8.63L395.67-8.63Q396.81-10.24 396.81-12.84L396.81-12.84L396.81-14.56L396.81-14.56Q396.81-17.16 395.67-18.80L395.67-18.80L395.67-18.80Q394.52-20.44 392.24-20.44L392.24-20.44ZM424.06-30.68L413.71-30.68L413.71-37.70L424.06-37.70L424.06-30.68ZM424.06 0L413.71 0L413.71-27.46L424.06-27.46L424.06 0ZM444.24-28.08L444.24-28.08Q450.53-28.08 454.48-25.97L454.48-25.97L454.48-25.97Q458.43-23.87 458.43-19.14L458.43-19.14L458.43-8.42L458.43-8.42Q458.43-7.54 458.85-6.97L458.85-6.97L458.85-6.97Q459.26-6.40 460.10-6.40L460.10-6.40L461.97-6.40L461.97-0.42L461.97-0.42Q461.81-0.31 461.16-0.08L461.16-0.08L461.16-0.08Q460.51 0.16 459.32 0.39L459.32 0.39L459.32 0.39Q458.12 0.62 456.56 0.62L456.56 0.62L456.56 0.62Q453.54 0.62 451.59-0.29L451.59-0.29L451.59-0.29Q449.64-1.20 448.92-2.81L448.92-2.81L448.92-2.81Q446.94-1.25 444.50-0.31L444.50-0.31L444.50-0.31Q442.05 0.62 438.78 0.62L438.78 0.62L438.78 0.62Q429.10 0.62 429.10-7.07L429.10-7.07L429.10-7.07Q429.10-11.08 431.26-13.18L431.26-13.18L431.26-13.18Q433.42-15.29 437.48-16.07L437.48-16.07L437.48-16.07Q441.53-16.85 448.08-16.85L448.08-16.85L448.08-18.20L448.08-18.20Q448.08-19.81 446.97-20.64L446.97-20.64L446.97-20.64Q445.85-21.48 444.08-21.48L444.08-21.48L444.08-21.48Q442.47-21.48 441.30-20.90L441.30-20.90L441.30-20.90Q440.13-20.33 440.13-19.08L440.13-19.08L440.13-18.88L429.94-18.88L429.94-18.88Q429.88-19.14 429.88-19.60L429.88-19.60L429.88-19.60Q429.88-23.50 433.60-25.79L433.60-25.79L433.60-25.79Q437.32-28.08 444.24-28.08L444.24-28.08ZM448.08-11.96L448.08-11.96Q443.66-11.96 441.56-11.00L441.56-11.00L441.56-11.00Q439.45-10.04 439.45-8.42L439.45-8.42L439.45-8.42Q439.45-5.82 442.99-5.82L442.99-5.82L442.99-5.82Q445.02-5.82 446.55-6.92L446.55-6.92L446.55-6.92Q448.08-8.01 448.08-9.62L448.08-9.62L448.08-11.96Z" fill="none" stroke="#e9ffd4" stroke-width="1"></path></g></g><style>text {
  font-size: 64px;
  font-family: Arial Black;
  dominant-baseline: central;
  text-anchor: middle;
}</style></svg>